<svg width="36" height="36" viewBox="0 0 36 36" fill="none" xmlns="http://www.w3.org/2000/svg">
<g id="star-sharp">
<path id="Icon" d="M16.8665 6.26076C17.2137 5.26188 17.3873 4.76245 17.644 4.62403C17.8662 4.50423 18.1338 4.50423 18.3559 4.62403C18.6127 4.76245 18.7863 5.26188 19.1335 6.26076L21.4289 12.8643C21.5277 13.1486 21.5771 13.2908 21.6661 13.3966C21.7448 13.4901 21.8451 13.563 21.9583 13.6089C22.0865 13.6609 22.237 13.664 22.5379 13.6701L29.5276 13.8125C30.5849 13.8341 31.1135 13.8449 31.3245 14.0462C31.5071 14.2205 31.5898 14.475 31.5445 14.7233C31.4922 15.0102 31.0708 15.3297 30.2281 15.9685L24.6571 20.1922C24.4172 20.374 24.2973 20.465 24.2241 20.5824C24.1595 20.6861 24.1212 20.804 24.1125 20.9259C24.1027 21.0638 24.1463 21.2079 24.2335 21.496L26.2579 28.1876C26.5642 29.1998 26.7173 29.7059 26.5909 29.9687C26.4816 30.1962 26.2652 30.3535 26.015 30.3872C25.726 30.4261 25.2919 30.1241 24.4239 29.5201L18.6854 25.5268C18.4384 25.3549 18.3148 25.269 18.1806 25.2357C18.062 25.2063 17.938 25.2063 17.8194 25.2357C17.6851 25.269 17.5616 25.3549 17.3146 25.5268L11.5761 29.5201C10.708 30.1241 10.274 30.4261 9.98499 30.3872C9.73483 30.3535 9.51838 30.1962 9.40905 29.9687C9.28272 29.7059 9.43584 29.1998 9.74206 28.1876L11.7665 21.496C11.8537 21.2079 11.8973 21.0638 11.8875 20.9259C11.8788 20.804 11.8405 20.6861 11.7758 20.5824C11.7027 20.465 11.5828 20.3741 11.3429 20.1922L5.77186 15.9685C4.92917 15.3297 4.50782 15.0102 4.4555 14.7233C4.41023 14.475 4.4929 14.2205 4.67549 14.0462C4.88647 13.8449 5.41511 13.8341 6.47238 13.8125L13.4621 13.6701C13.763 13.664 13.9135 13.6609 14.0416 13.6089C14.1549 13.563 14.2552 13.4901 14.3338 13.3966C14.4229 13.2908 14.4723 13.1486 14.5711 12.8643L16.8665 6.26076Z" stroke="#797979" stroke-width="2" stroke-linecap="round" stroke-linejoin="round"/>
</g>
</svg>
